@startuml
class AAUOC {
    newLocation(l : Location) : void
    newEvent(e : Event) : void
    newPerson(p : Person) : void
    informEvent(e : Event) : void
    register(m : Member,e : Event) : void
}
class Person{
    name : String
}
class Member{
    e-mail : String
}
class BoardMember{}
class Event{
    date : Date
    description : String

    assign(l : Location) : void
}

class Conference{
    max_attendees : Integer
}
class BoardMeeting{}
class Location{
    description : String
    address : String
}


AAUOC o-- "0..*" Person
AAUOC o-- "0..*" Event
AAUOC o-- "0..*" Location
Event <|-- BoardMeeting
Event <|-- Conference
Member <|-- BoardMember
Person <|-- Member


Location "1" -- "0.*" Event : isLocatedIn
Event "0.*" -- "0.*" Member : attendsTo
Conference "0.*" -- "0.*" Person :attendsTo
BoardMember "0.*" -- "0.*" BoardMeeting : attendsTo


@enduml